<svg height="38" width="218.5" viewBox="0 0 138 24" xmlns="http://www.w3.org/2000/svg" style="display: block;"><path fill="#ffffff" d="m23.633 6.0604h6.3603v16.026h-6.3603v-16.026zm0-4.3656h6.3603v3.0593h-6.3603v-3.0593zm20.99 0h6.3619v3.0593h-6.3619v-3.0593zm0 4.3656h6.3619v16.026h-6.3619v-16.026zm18.994 7.7e-4h6.3619v16.026h-5.905v-2.3554c-1.5883 2.2007-3.1487 2.813-5.7791 2.813-3.4875 0-5.7495-2.1392-5.7495-6.7286v-9.7546h6.3603v8.655c0 2.2022 0.7662 2.9055 2.2947 2.9055 1.8346 0 2.4159-1.377 2.4159-3.8535v-7.707h8e-4zm23.704 10.888c0 3.3337-2.7532 5.5957-8.6255 5.5957-3.6694 0-7.707-1.1298-8.0427-5.4434h6.0557c0 0.6419 0.2448 1.133 0.6722 1.4679 0.3986 0.3062 0.948 0.4896 1.5588 0.4896 0.9791 0 2.0188-0.3062 2.0188-1.4376 0-2.5682-9.8183-0.5199-9.8183-6.7279 0-4.0983 4.2522-5.2926 7.585-5.2926 3.3329 0 7.5858 0.79572 7.9533 5.0463h-5.7806c-0.0629-0.5191-0.2759-0.88667-0.6139-1.1618-0.3357-0.27431-0.7942-0.39553-1.2837-0.39553-1.1019 0-1.8036 0.3357-1.8036 1.1314 0 2.2318 10.123 0.7344 10.123 6.7287l0.0016-8e-4zm-65.555-4.04c0.4834 0.739 0.7717 1.6397 0.7717 2.7485-0.0335 4.103-3.4269 6.8872-10.734 6.8872-4.5676 0-9.593-1.3925-10.01-6.6983v-0.2666h6.8491l-1.5153 4.4674 4.9942-3.4743 4.9935 3.4743-1.3009-3.8364c-0.2043-0.3986-0.725-0.617-0.725-0.617-2.7306-1.5129-12.686-0.6885-12.686-7.3868 0-5.044 5.2903-6.5126 9.4391-6.5126 4.1487 0 9.4414 0.97989 9.8983 6.2104v0.20049h-7.7101l-1.9108-5.6299-1.9101 5.6291h-6.1816l3.4494 2.3786c1.0094-0.4064 2.0934-0.5859 3.1721-0.69935 1.1578-0.12123 2.3265-0.14609 3.4882-0.06839 0.9791 0.06605 1.9544 0.20437 2.9094 0.42894 0.8618 0.2028 1.7422 0.4305 2.5247 0.8525 0.8975 0.4841 1.6684 1.1011 2.1999 1.9123h-0.0047zm20.677-7.3076c0.3956 0 0.8261 0.09247 0.8261 0.09247v6.3604s-0.3357-0.1834-1.3156-0.1834c-2.6009 0-3.9141 1.2231-3.9141 4.6787v5.5374h-6.3635v-16.027h5.7814v3.2412h0.0599c0.8882-2.5068 2.4353-3.6996 4.9243-3.6996h0.0015zm83.066-3.4494h10.718v19.934h-6.776v-5.6556c0-2.7438 0.052-5.2817 0.154-7.6153-0.205 0.95192-0.431 1.8572-0.677 2.7159l-2.772 10.555h-5.667l-2.834-10.555c-0.103-0.3917-0.2-0.7654-0.292-1.1198-0.093-0.3543-0.17-0.67215-0.231-0.95189-0.062-0.27975-0.104-0.43827-0.124-0.47635 0.103 2.2776 0.154 4.7595 0.154 7.4474v5.6556h-6.775v-19.934h10.717l1.724 7.5594c0.185 0.84002 0.359 1.6334 0.524 2.3801 0.226-1.1943 0.39-1.9877 0.493-2.3801l1.663-7.5594h1e-3zm-23.622 9.2954 7.853 10.639h-8.161l-1.202-1.82-2.3403-3.6118c-0.6364 0.9519-1.4888 2.1556-2.5565 3.6118l-1.3242 1.82h-7.7303l8.0691-10.219-7.2065-9.715h8.0691l1.2013 1.736c0.7802 1.1384 1.3654 1.9971 1.7554 2.576 0.0412-0.0746 0.3179-0.48489 0.8315-1.2317 0.4103-0.59679 0.7188-1.0452 0.9244-1.3436l1.201-1.736h7.514l-6.899 9.2953 1e-3 -7e-4z"></path></svg>